<svg xmlns="http://www.w3.org/2000/svg" viewBox="0 0 324.86 234.52"><defs><style>.cls-1{fill:#8db92e;}.cls-2{font-size:87px;font-family:GillSansMT-ExtraCondensedBold, Gill Sans MT Ext Condensed Bold;font-weight:700;letter-spacing:0.03em;}.cls-2,.cls-3{fill:#ddb022;}.cls-3{font-size:55px;font-family:ArialRoundedMTBold, Arial Rounded MT Bold;}.cls-4{letter-spacing:-0.07em;}.cls-5{fill:#d2d2d2;}.cls-6{fill:#c7c9c9;}.cls-7{fill:#e9eded;}.cls-8{fill:#c6c9c9;}.cls-9{fill:#9d9d9d;}.cls-10{fill:#cfd1cd;}.cls-11{fill:#d1d1d1;}.cls-12{fill:#5b5b5b;}.cls-13{fill:#9c9c9c;}.cls-14{fill:#dadddd;}.cls-15{fill:#3e3e3e;}.cls-16{fill:#414141;}.cls-17{fill:#464646;}.cls-18{fill:#9e9f9f;}.cls-19{fill:#ccc;}.cls-20{fill:#a7a7a7;}.cls-21{fill:#cccdcd;}.cls-22{fill:#a3a4a4;}.cls-23{fill:#dddfdf;}.cls-24{fill:#d7dbdb;}.cls-25{fill:#d4d5d5;}.cls-26{fill:#9f9f9f;}</style></defs><g id="Layer_2" data-name="Layer 2"><path class="cls-1" d="M324.87-.38a1,1,0,0,0,.12.32c0,.82-.05,1.64-.05,2.46V230.49c0,.75,0,1.51,0,2.26a24.34,24.34,0,0,1-6.65,1.57c-3.55,0-7.1,0-10.65.06H281.75c-2.92,0-5.83-.05-8.75-.05-4.34,0-8.68.06-13,.09h-2.8c-.68,0-1.36-.09-2-.09q-15.75,0-31.51,0c-3.61,0-7.23,0-10.84.06-4.76,0-9.53-.06-14.29-.06-4.15,0-8.3,0-12.45.08-1,0-2-.08-3.06-.08l-31.3,0c-.09-1-.53-1.6-1.66-1.58a12.69,12.69,0,0,1-2.61-.25c-2-.42-3.88-.31-5.27,1.48l-.41,0q-66.12,0-132.23,0a10,10,0,0,0-1.77.31l-1.23.11-1.65-.81-.41,0a8.42,8.42,0,0,1-3.62-3.75l-.54-3.25a1.41,1.41,0,0,0,0-.41c0-.15,0-.29,0-.44C.17,223.84.1,222,0,220.09a7.63,7.63,0,0,0,.25-1.4c0-3.56,0-7.12-.05-10.68q0-6.37,0-12.75c0-2.73,0-5.45,0-8.18q0-8.81,0-17.6c0-.72,0-1.45,0-2.17l0-2.07,0-2C.17,161,.09,158.72,0,156.46c.05-1.11.14-2.22.14-3.34,0-.72-.11-1.45-.16-2.17a25.55,25.55,0,0,0,.27-2.62Q.29,78.64.28,9c0-1.16,0-2.33.08-3.49C.64,1.33,3.05-1.11,7.14-1.32c3.34-.17,6.69-.32,10-.32H316.84A19.67,19.67,0,0,1,324.87-.38Zm-74.3,130.72h1.26l.87,0h13.06l4.11,0c.41,0,.82.06,1.22.06h30.47c.95,0,1.91,0,2.86-.11,3.41-.28,5.38-2,6.22-5.2a19.34,19.34,0,0,0,.36-2.6c0-10.28,0-20.56,0-30.84q0-34.12,0-68.26c0-.55,0-1.1,0-1.64a6.74,6.74,0,0,0-5.91-6.6,18.18,18.18,0,0,0-2.85-.25q-9.24,0-18.49,0-60.8,0-121.6,0a17.07,17.07,0,0,0-2.85.26A6,6,0,0,0,154,20a12.89,12.89,0,0,0-.35,3q0,48.72,0,97.45c0,1.1,0,2.2,0,3.29.2,3.73,2.66,6.41,6.36,6.53,4.58.15,9.17,0,13.75,0,.68,0,1.36.09,2,.09h37.42c.68,0,1.36-.05,2-.07h35.31Z"/><rect class="cls-1" x="0.32" y="86.55" width="324.67" height="147.93"/><rect class="cls-1" x="128.26" y="7.95" width="184.34" height="121.19"/><text class="cls-2" transform="translate(27.21 130.39)">MENU</text><text class="cls-3" transform="translate(55.24 188.39)"><tspan class="cls-4">da</tspan><tspan x="58.81" y="0"> </tspan><tspan class="cls-4" x="72.56" y="0">semana</tspan></text><path class="cls-5" d="M311,103.44c-3.56-.51-6.86-.92-10.14-1.48-1.94-.33-3.84-1-5.85-.8L292.14,100a2.54,2.54,0,0,0-2.86-.84l-2.5-.83-3.67-1.51a7.74,7.74,0,0,0,0-6.1,12,12,0,0,0-8.88-8.18A2.48,2.48,0,0,0,272,83a6.4,6.4,0,0,0-2.39,3.4c0-.43,0-.87-.05-1.3.43-1.08.83-2.16,1.27-3.24a41.8,41.8,0,0,0,2.48-10.1c.2-1.39.64-1.64,1.94-1,2.11,1,3.82.4,5.44-1l.77-.67c4.19-2.6,6.25-9.39,5.16-14.36a15.6,15.6,0,0,0-1.5-4.2c-1.19-2.15-3.48-2.06-4.63.08-.48.89-.85,1.85-1.34,2.95-.06-.45-.1-.71-.14-1,.15-3.56,2-4.7,4.41-5.35a17.14,17.14,0,0,0,2.3-.85c1.7-.72,1.84-1,1.33-2.79-.86-3-1.73-6-2.59-9.06,2.37-.17,3.51-1.06,4-3.31a23.19,23.19,0,0,0,.41-3.23c.29-3.39-.77-6.74-.07-10.19.47-2.32,0-2.56-2.62-2.56h-83.1c-.55,0-1.09,0-1.64,0-1.36.09-1.86.72-1.51,2,.87,3.15,1.78,6.28,2.67,9.41a4.09,4.09,0,0,0-1.71,2.46c-1.19,3.41-2.3,6.85-3.66,10.2a7.72,7.72,0,0,0,0,6.7c-.07.33,0,.78-.22,1-1.09,1-1,2.28-1.05,3.59a45.15,45.15,0,0,0,1,10.52,54.22,54.22,0,0,0,2.63,7.7,2.08,2.08,0,0,0,2.15,1.55,10.79,10.79,0,0,1,1,1.5c1,2.3,2,4.64,3.07,6.93S208,83.17,209,85.42s1.77,4.57,2.7,6.84a1.91,1.91,0,0,1-.18,1.89c-.87,1.61-1.58,3.3-2.36,5-1.59-.93-3.17-1.89-4.78-2.78a3.89,3.89,0,0,0-5.94,3,3.16,3.16,0,0,1-2.12,2.75c-2.62,1-5.18,2.1-7.82,3a23.16,23.16,0,0,0-6.9,3.5c-4.43,3.59-7.44,8-7.37,14-.86,2.27-.28,4.6-.32,6.9,0,.17.2.33.31.5s0,.26,0,.39c-4.59,0-9.18.11-13.76,0-3.69-.13-6.15-2.8-6.35-6.53-.06-1.1,0-2.2,0-3.29q0-48.73,0-97.45a12.89,12.89,0,0,1,.35-3,6.07,6.07,0,0,1,5.27-4.8,17.09,17.09,0,0,1,2.86-.26l121.59,0q9.26,0,18.49,0a16.06,16.06,0,0,1,2.85.25,6.73,6.73,0,0,1,5.91,6.59c0,.55,0,1.1,0,1.65q0,34.13,0,68.26"/><path class="cls-5" d="M311.46,91.69c0,10.28,0,20.56,0,30.84a18,18,0,0,1-.36,2.6L311,103.44"/><path class="cls-6" d="M269.51,85.08c0,.43,0,.87.05,1.3s0,.55,0,.83l-.81-.66a4.31,4.31,0,0,0-.09,3.41c.36,1.26.64,2.55.95,3.82L268,91c-.28,4.37.76,7.58,2.57,8.33.41-1.41-.26-2.64-.62-3.91l1.21-.8c.7,2.5,1.35,4.78,2,7.07a2,2,0,0,1,0,.81c-.7,4.49-2.25,8.51-5.67,11.74s-6.86,6.83-10.27,10.27c-1.39,1.39-2.74,2.82-4.11,4.24a9.69,9.69,0,0,0-1.32,0c-2,.27-4,.57-6.05.85-2.38.14-4.75.31-7.12.4-1.57.06-3.14,0-4.71,0a8.81,8.81,0,0,0-1.73.39h-1.65c-.52-1-1-2-1.59-3a14.52,14.52,0,0,0-1.29-1.55c-.42-.92-.87-1.84-1.26-2.78-1.37-3.3-2.87-6.61-5.41-9.1s-4.29-5.29-6.4-8c-1.81-2.29-3.61-4.6-5.41-6.9.78-1.66,1.49-3.35,2.36-5a1.91,1.91,0,0,0,.18-1.89c-.93-2.27-1.71-4.6-2.7-6.84s-2.17-4.41-3.21-6.64-2-4.63-3.07-6.93a10.79,10.79,0,0,0-1-1.5l0,0,.42-3.69c.1-1.12.26-2.24.28-3.36,0-2,0-3.91,0-5.86a12.84,12.84,0,0,0-.31-1.94c0-4.58.24-9.16.06-13.73a32.91,32.91,0,0,1,2.07-11.81,15.36,15.36,0,0,0,.41-2.38c1.33,1.06,1.44,1.06,2.84.29a13.5,13.5,0,0,1,2-1c4.82-1.72,9.59-3.58,14.48-5a61.51,61.51,0,0,1,11.36-2.37,50.17,50.17,0,0,1,13.46.41c4.63.78,9.21,1.8,13.78,2.9,1.88.45,3.84.94,5.31,2.41a1.4,1.4,0,0,0-1.89.71,12.89,12.89,0,0,1-.8,1.18c-.89,1.38-.82,1.79.77,2.41a6.9,6.9,0,0,1,4.34,5.07,44,44,0,0,1,1.33,13.18A22.69,22.69,0,0,0,270,54.09l1.1.2c0,.67,0,1.36-.14,2-.22,1.48-.47,3-.76,4.43-.13.69-.09,1.27.73,1.37a13.66,13.66,0,0,0,6.06-.38,1.44,1.44,0,0,0,1.13-1.49c0-.75,0-1.5.11-2.24.21-1.82.46-3.62.7-5.44l.14,1c.49-1.1.86-2.06,1.34-2.95,1.15-2.14,3.44-2.23,4.63-.08a15.6,15.6,0,0,1,1.5,4.2c1.09,5-1,11.76-5.16,14.36-1-.91-1.81-.06-2.59.34a2.72,2.72,0,0,1-3.06-.13c-1.25-.83-2.57-1.56-3.87-2.3a6.31,6.31,0,0,0-1.28-.3,10.6,10.6,0,0,0,1.11,1.87,2.67,2.67,0,0,1,.58,2.67c-.07.4-.23.79-.27,1.2-.41,4.44-2.53,8.19-5,11.69s-5.3,6.76-7.91,10.17a28.82,28.82,0,0,1-7.29,6.51c-4.23,2.76-9.05,3.71-13.91,4.47a14.74,14.74,0,0,1-4.06.33c-2.89-.38-5.75-1-8.62-1.56l-5.57-3.57c.34,1.31,2.1,2.83,4.73,4a18.53,18.53,0,0,0,10.22,2.47c2.44-.15,4.87-.51,7.3-.82a25.18,25.18,0,0,0,11.69-4.61,54.15,54.15,0,0,0,10.8-10.26c1.22-1.54,2.23-3.25,3.43-4.81A8.55,8.55,0,0,1,269.51,85.08ZM281,64.94c1.72-1.32,2-3.12,1.65-5.1a1.73,1.73,0,0,0-1.91-1.65c.14.66.25,1.11.34,1.57.48,2.35.15,3-2,3.92a12.57,12.57,0,0,0-1.3.79c.7,1.25,1.65.86,2.47.88-.77,1.53-2.17,2.09-3.93,2.26.71.9,1.32.36,1.79.19C279.46,67.3,280.7,66.58,281,64.94ZM254.79,51.15A6.83,6.83,0,0,0,248.14,44a7.09,7.09,0,0,0-7.22,6.87A7.19,7.19,0,0,0,247.77,58,6.93,6.93,0,0,0,254.79,51.15Zm-36.44,7.3a7,7,0,0,0,7.09-6.93,7.21,7.21,0,0,0-6.94-7c-3.67-.09-6.84,3.2-6.93,7.18A6.76,6.76,0,0,0,218.35,58.45Zm6.2,6.74-.49-.27c-.65.91-1.3,1.82-1.94,2.75-.91,1.33-.9,1.49.06,2.65a11.28,11.28,0,0,0,13.14,3c1.16-.56,2.2-1.35,3.32-2,1.8-1,2-2.64,1.69-4.43-.08-.41-.61-1-1-1-.72,0-.75.7-.63,1.24a2.88,2.88,0,0,1-1.57,3.24,11.53,11.53,0,0,0-1.31,1c-3.83,3.28-8.27,1.8-11.69-.57-1.2-.83-1.2-1.44-.58-2.81C224,67.05,224.83,66.29,224.55,65.19Zm19.83,10.67c-.73,1.81-1.3,3.59-2.15,5.24A10.34,10.34,0,0,1,238,85.15a13,13,0,0,1-5.47,1.57,12.4,12.4,0,0,1-5.62-.91,9.78,9.78,0,0,1-4.69-3.53c-1-1.53-1.77-3.22-2.68-4.92-.63,2.39,1.79,6.32,5,8.28a13.71,13.71,0,0,0,15.9-1C243.57,81.82,245.34,78.06,244.38,75.86Z"/><path class="cls-7" d="M209.15,99.11c1.8,2.3,3.6,4.61,5.41,6.9,2.11,2.67,3.92,5.53,6.4,8s4,5.8,5.41,9.1c.39.94.84,1.86,1.26,2.78a12.2,12.2,0,0,1,.24,1.79c0,.91-.15,1.82-.23,2.74h-9.46c-1-4.06-3.66-7.19-6.35-10.14-5-5.45-10.22-10.64-15.37-15.92a4.12,4.12,0,0,0-.94-.54l-.33.26a13.61,13.61,0,0,0,1.21,2.23c2,2.55,4.11,5.1,6.3,7.53,2.7,3,5.6,5.79,8.28,8.8,2,2.29,4,4.7,4.74,7.78-.68,0-1.36.07-2,.07H176.26c-.67,0-1.35-.06-2-.09,0-.13,0-.26,0-.39,0-2.47,0-4.93,0-7.4-.07-6,2.94-10.36,7.37-14a23.16,23.16,0,0,1,6.9-3.5c2.64-.94,5.2-2.08,7.82-3a3.16,3.16,0,0,0,2.12-2.75,3.89,3.89,0,0,1,5.94-3C206,97.22,207.56,98.18,209.15,99.11Zm-26.27,19.47-.43-.17-.33,1.29.37.1Z"/><path class="cls-7" d="M311,103.44l.12,21.69a6.31,6.31,0,0,1-6.21,5.2c-1,.08-1.91.11-2.86.11H271.58c-.41,0-.82,0-1.23-.06a13.29,13.29,0,0,1,1.59-2.54c3.92-4,8-7.82,11.4-12.28a19.45,19.45,0,0,0,3.86-7.35,19.09,19.09,0,0,1,2.25-4.75c.2-.36.89-.51,1.39-.64,1.18-.31,2.38-.55,3.57-.82l-.2-.42a2.67,2.67,0,0,1,0-.4l.8,0c2-.19,3.91.47,5.85.8,3.28.56,6.58,1,10.14,1.48"/><path class="cls-7" d="M269.52,87.21c0-.28,0-.55,0-.83A6.4,6.4,0,0,1,272,83a2.48,2.48,0,0,1,2.28-.49,12,12,0,0,1,8.88,8.18,7.74,7.74,0,0,1,0,6.1l3.68,1.51a4,4,0,0,0-2.44,4.54c0,1.1-.87,0-1.19.49-.1.51-.2,1.07-.32,1.7l1.89-.94c.74,2-.06,3.7-1.2,5.3a19.9,19.9,0,0,0-1.18,1.93,41.37,41.37,0,0,1-10.33,12,17.38,17.38,0,0,0-5.77,7.06H253.18c.5-.56,1-1.16,1.51-1.68,4-3.86,8-7.67,11.91-11.59a67.47,67.47,0,0,0,4.71-5.42,16.29,16.29,0,0,0,3.38-9,13.75,13.75,0,0,0-2.45-9.26,8.15,8.15,0,0,1-.76-1.21C270.8,90.51,270.17,88.86,269.52,87.21Z"/><path class="cls-8" d="M266.25,130.35a17.38,17.38,0,0,1,5.77-7.06,41.37,41.37,0,0,0,10.33-12,19.9,19.9,0,0,1,1.18-1.93c1.14-1.6,1.94-3.27,1.21-5.3l-.39-1.25a4,4,0,0,1,2.44-4.54l2.49.83,2.86.84,2.87,1.21-.8,0-3.42-.19,0,.43a15.85,15.85,0,0,0,3.45.16l.2.42c-1.19.27-2.39.51-3.57.82-.5.13-1.19.28-1.39.64a19.09,19.09,0,0,0-2.25,4.75,19.45,19.45,0,0,1-3.86,7.35c-3.41,4.46-7.48,8.3-11.4,12.28a13.29,13.29,0,0,0-1.59,2.54Z"/><path class="cls-9" d="M269.52,87.21c.65,1.65,1.28,3.3,2,4.94a8.15,8.15,0,0,0,.76,1.21,13.75,13.75,0,0,1,2.45,9.26,16.29,16.29,0,0,1-3.38,9,67.47,67.47,0,0,1-4.71,5.42c-3.92,3.92-7.94,7.73-11.91,11.59-.54.52-1,1.12-1.51,1.68l-.87,0,.78-1.67c1.37-1.42,2.72-2.85,4.11-4.24,3.41-3.44,6.75-6.95,10.27-10.27s5-7.25,5.67-11.74a2,2,0,0,0,0-.81c-.62-2.29-1.27-4.57-2-7.07l-1.21.8c-.14-.53-.27-1.06-.4-1.59-.31-1.27-.59-2.56-.95-3.82a4.31,4.31,0,0,1,.09-3.41Z"/><path class="cls-8" d="M215.72,130.37c-.78-3.08-2.71-5.49-4.74-7.78-2.68-3-5.58-5.81-8.28-8.8-2.19-2.43-4.25-5-6.3-7.53a13.61,13.61,0,0,1-1.21-2.23l.33-.26a4.12,4.12,0,0,1,.94.54c5.15,5.28,10.41,10.47,15.37,15.92,2.69,3,5.33,6.08,6.35,10.14Z"/><path class="cls-10" d="M232.16,130.37a8.81,8.81,0,0,1,1.73-.39c1.57,0,3.14,0,4.71,0,2.37-.09,4.74-.26,7.12-.4l2.67.41,2.67.42Z"/><path class="cls-5" d="M251.06,130.38l-2.67-.42-2.67-.41c2-.28,4-.58,6.05-.85a9.69,9.69,0,0,1,1.32,0l-.78,1.67Z"/><path class="cls-11" d="M227.64,130.38c.08-.92.22-1.83.23-2.74a12.2,12.2,0,0,0-.24-1.79,14.52,14.52,0,0,1,1.29,1.55c.58,1,1.07,2,1.59,3Z"/><path class="cls-7" d="M267.87,25.15c-1.47-1.47-3.43-2-5.31-2.41-4.57-1.1-9.15-2.12-13.78-2.9a50.17,50.17,0,0,0-13.46-.41A61.51,61.51,0,0,0,224,21.8c-4.89,1.45-9.66,3.31-14.48,5a13.5,13.5,0,0,0-2,1c-1.4.77-1.51.77-2.84-.29l-2-.89c-.89-3.13-1.8-6.26-2.67-9.41-.35-1.28.15-1.91,1.51-2,.55,0,1.09,0,1.64,0h83.1c2.59,0,3.09.24,2.62,2.56-.7,3.45.36,6.8.07,10.19a23.19,23.19,0,0,1-.41,3.23c-.52,2.25-1.66,3.14-4,3.31-.45-1.12-1-2.09-2.42-2.11-.24,0-.46-.27-.71-.39Z"/><path class="cls-12" d="M267.87,25.15,281.28,32c.25.12.47.39.71.39,1.42,0,2,1,2.42,2.11.86,3,1.73,6,2.59,9.06.51,1.79.37,2.07-1.33,2.79a17.14,17.14,0,0,1-2.3.85c-2.43.65-4.26,1.79-4.41,5.35-.24,1.81-.49,3.61-.7,5.43-.09.74-.09,1.49-.11,2.24A1.44,1.44,0,0,1,277,61.74a13.66,13.66,0,0,1-6.06.38c-.82-.1-.86-.68-.73-1.37.29-1.47.54-3,.76-4.43.1-.67.1-1.36.14-2q.25-3.3.49-6.59a44,44,0,0,0-1.33-13.18A6.9,6.9,0,0,0,266,29.45c-1.59-.62-1.66-1-.77-2.41a12.89,12.89,0,0,0,.8-1.18A1.4,1.4,0,0,1,267.87,25.15Z"/><path class="cls-13" d="M269.51,85.08a8.55,8.55,0,0,0-1.72,1.35c-1.2,1.56-2.21,3.27-3.43,4.81a54.15,54.15,0,0,1-10.8,10.26,25.18,25.18,0,0,1-11.69,4.61c-2.43.31-4.86.67-7.3.82a18.53,18.53,0,0,1-10.22-2.47l.84-.42c2.87.54,5.73,1.18,8.62,1.56a14.74,14.74,0,0,0,4.06-.33c4.86-.76,9.68-1.71,13.91-4.47a28.82,28.82,0,0,0,7.29-6.51c2.61-3.41,5.41-6.69,7.91-10.17s4.64-7.25,5-11.69c0-.41.2-.8.27-1.2a2.67,2.67,0,0,0-.58-2.67,10.6,10.6,0,0,1-1.11-1.87,6.31,6.31,0,0,1,1.28.3c1.3.74,2.62,1.47,3.87,2.3a2.72,2.72,0,0,0,3.06.13c.78-.4,1.6-1.25,2.59-.34l-.77.67c-1.62,1.39-3.33,2-5.44,1-1.3-.64-1.74-.39-1.94,1a41.8,41.8,0,0,1-2.48,10.1C270.34,82.92,269.94,84,269.51,85.08Z"/><path class="cls-12" d="M202.58,26.66l2,.89a15.36,15.36,0,0,1-.41,2.38,32.91,32.91,0,0,0-2.07,11.81c.18,4.57,0,9.15-.06,13.73l-1.11.38c-.57-1.59-1.11-3.2-1.71-4.78s-1.34-3.37-2-5a7.72,7.72,0,0,1,0-6.7c1.36-3.35,2.47-6.79,3.66-10.2A4.09,4.09,0,0,1,202.58,26.66Z"/><path class="cls-6" d="M197.25,46c.68,1.68,1.38,3.36,2,5s1.14,3.19,1.71,4.78c.11.43.23.85.34,1.28-.13.85-.27,1.71-.38,2.56-.07.55-.1,1.09-.14,1.64h-.46l-.75-4.2A3.65,3.65,0,0,0,198.11,61c.22,1.26,1.24,1.7,2.39,1.87.27,0,.55.06.82.09l0,4.05.4,3.29,0,0a2.08,2.08,0,0,1-2.15-1.55,54.22,54.22,0,0,1-2.63-7.7,45.15,45.15,0,0,1-1-10.52c.05-1.31,0-2.59,1.05-3.59C197.23,46.8,197.18,46.35,197.25,46Z"/><path class="cls-5" d="M174.22,122.56c0,2.47,0,4.93,0,7.4-.11-.17-.31-.33-.31-.5C173.94,127.16,173.36,124.83,174.22,122.56Z"/><path class="cls-14" d="M292.14,100l-2.86-.84A2.54,2.54,0,0,1,292.14,100Z"/><path class="cls-15" d="M254.79,51.15a6.93,6.93,0,0,1-7,6.81,7.19,7.19,0,0,1-6.85-7.07A7.09,7.09,0,0,1,248.14,44,6.83,6.83,0,0,1,254.79,51.15Z"/><path class="cls-15" d="M218.35,58.45a6.76,6.76,0,0,1-6.78-6.73c.09-4,3.26-7.27,6.93-7.18a7.21,7.21,0,0,1,6.94,7A7,7,0,0,1,218.35,58.45Z"/><path class="cls-16" d="M224.55,65.19c.28,1.1-.56,1.86-1,2.75-.62,1.37-.62,2,.58,2.81,3.42,2.37,7.86,3.85,11.69.57a11.53,11.53,0,0,1,1.31-1,2.88,2.88,0,0,0,1.57-3.24c-.12-.54-.09-1.26.63-1.24.34,0,.87.63,1,1,.35,1.79.11,3.41-1.69,4.43-1.12.63-2.16,1.42-3.32,2a11.28,11.28,0,0,1-13.14-3c-1-1.16-1-1.32-.06-2.65.64-.93,1.29-1.84,1.94-2.75Z"/><path class="cls-17" d="M244.38,75.86c1,2.2-.81,6-4,8.74a13.71,13.71,0,0,1-15.9,1c-3.19-2-5.61-5.89-5-8.28.91,1.7,1.67,3.39,2.68,4.92a9.78,9.78,0,0,0,4.69,3.53,12.4,12.4,0,0,0,5.62.91A13,13,0,0,0,238,85.15a10.34,10.34,0,0,0,4.26-4.05C243.08,79.45,243.65,77.67,244.38,75.86Z"/><path class="cls-18" d="M280.22,65.35c-.82,0-1.77.37-2.47-.88a12.57,12.57,0,0,1,1.3-.79c2.18-1,2.51-1.57,2-3.92-.09-.46-.2-.91-.34-1.57a1.73,1.73,0,0,1,1.91,1.65c.35,2,.07,3.78-1.65,5.1Z"/><path class="cls-9" d="M201.35,67l0-4.06V57.13c-.11-.43-.23-.85-.34-1.28l1.11-.38a12.84,12.84,0,0,1,.31,1.94c.06,2,.08,3.91,0,5.86,0,1.12-.18,2.24-.28,3.36Z"/><path class="cls-11" d="M269.57,93.78c.13.53.26,1.06.4,1.59.36,1.27,1,2.5.62,3.91-1.81-.75-2.85-4-2.57-8.33Z"/><path class="cls-19" d="M271.62,47.7q-.24,3.28-.49,6.59l-1.1-.2A22.69,22.69,0,0,1,271.62,47.7Z"/><path class="cls-20" d="M225.19,104l-.84.42c-2.63-1.16-4.39-2.68-4.73-4Z"/><path class="cls-21" d="M280.22,65.35l.78-.41c-.3,1.64-1.54,2.36-2.92,2.86-.47.17-1.08.71-1.79-.19C278.05,67.44,279.45,66.88,280.22,65.35Z"/><path class="cls-22" d="M201.35,67l.82-.4-.42,3.69C201.62,69.22,201.49,68.13,201.35,67Z"/><path class="cls-23" d="M182.88,118.58l-.39,1.22-.37-.1.33-1.29Z"/><path class="cls-24" d="M294.21,101.58a15.85,15.85,0,0,1-3.45-.16l0-.43,3.42.19A2.67,2.67,0,0,0,294.21,101.58Z"/><path class="cls-25" d="M284.35,102.82l.39,1.25-1.9.94c.12-.63.22-1.19.32-1.7C283.48,102.85,284.34,103.92,284.35,102.82Z"/><path class="cls-26" d="M201.32,57.13V63c-.27,0-.55,0-.82-.08-1.15-.17-2.17-.61-2.39-1.87a3.65,3.65,0,0,1,1.48-3.89l.75,4.2h.46c0-.55.07-1.09.14-1.64C201.05,58.84,201.19,58,201.32,57.13Z"/></g></svg>